<svg width="102" height="41" viewBox="0 0 102 41" fill="none" xmlns="http://www.w3.org/2000/svg">
<path d="M12.0404 9.15307H16.929V14.7696H12.0404V31.0758C12.0404 32.797 12.1309 33.5217 15.2994 33.5217C15.8426 33.5217 16.3858 33.4311 16.929 33.4311V39.41C15.6616 39.5006 14.3942 39.5006 13.2173 39.5006H12.2215C5.3413 39.5006 4.0738 36.8735 4.0738 32.9782V14.7696H0V9.15307H4.0738V1H12.0404V9.15307Z" fill="black"/>
<path d="M45.3351 31.0133C43.2531 38.2605 37.1881 40.6157 32.0281 40.6157C23.5181 40.6157 17 36.5392 17 24.219C17 20.5954 18.2674 9 31.4851 9C37.4591 9 45.6981 11.8083 45.6981 25.5779V27.0273H24.9665C25.1476 29.292 25.6911 34.3651 32.0281 34.3651C34.2001 34.3651 36.4641 33.1875 37.0971 31.1038H45.3351V31.0133ZM37.5501 21.8638C37.0971 16.9719 34.0191 15.5224 31.3941 15.5224C27.6821 15.5224 25.6911 17.8778 25.2381 21.8638H37.5501Z" fill="black"/>
<path d="M73.702 28.8391C73.43 31.9191 70.986 40.6157 59.941 40.6157C48.625 40.6157 46 32.0097 46 25.6684C46 15.9754 50.255 9 60.484 9C65.282 9 73.068 11.1741 73.792 20.5048H65.735C65.373 18.6025 64.287 15.613 60.847 15.613H60.484C55.505 15.613 54.147 20.5954 54.147 24.3096C54.147 27.5708 54.238 34.0933 60.303 34.0933C64.377 34.0933 65.735 30.2885 65.735 28.8391H73.702Z" fill="black"/>
<path d="M101.34 40.5841H93.373V22.285C93.373 20.1109 93.283 16.3967 88.213 16.3967C84.683 16.3967 81.967 18.752 81.967 23.3721V40.5841H74V0H81.967V14.4037H82.057C83.053 11.9578 86.493 9.69308 90.748 9.69308C96.633 9.69308 101.25 13.1355 101.25 19.7485V40.5841H101.34Z" fill="black"/>
</svg>
